# xmcd
#
# Track frame offsets:
#	182
#	11412
#	28132
#	43225
#	57137
#	67230
#	75805
#	86207
#	101832
#	117882
#	128775
#	142655
#	157930
#	170780
#	182742
#	191210
#	205550
#	220317
#
# Disc length: 3184 seconds
#
# Revision: 0
# Processed by: cddbd v1.5.2PL0 Copyright (c) Steve Scherf et al.
# Submitted via: audiograbber 1.83.01
#
DISCID=fa0c6e12
DTITLE=Various Artist - Dr. Demento's Country Corn
DYEAR=1900
DGENRE=Oldies
TTITLE0=Leroy Pullins - I'm A Nut
TTITLE1=Ray Stevens - Mississippi Squirrel Revival
TTITLE2=Weird Al Yankovic - Achy Breaky Song
TTITLE3=Billy Edd Wheeler - Ode To The Little Brown Shack Out Back
TTITLE4=Homer and Jethro - I'm My Own Grandpaw
TTITLE5=Roger Miller - You Can't Roller Skate In A Buffalo Herd
TTITLE6=Jerry Reed - When You're Hot, You're Hot
TTITLE7=Cledus Maggard - Virgil And The $300 Vacation
TTITLE8=Johnny Paycheck - Colorado Cool-Aid
TTITLE9=Little Jimmy Dickens - May The Bird Of Paradise Fly Up Your Nose
TTITLE10=Bobby Russell - Saturday Morning Confusion
TTITLE11=Dick Feller - The Credit Card Song
TTITLE12=Tom T Hall - I Like Beer
TTITLE13=Jim Stafford - Wildwood Weed
TTITLE14=Pinkard and Bowden - Elvis Was a Narc
TTITLE15=Gerry House - My Jeans Are Too Tight
TTITLE16=Ray Stevens - The Streak
TTITLE17=Jerry Reed - Another Puff
EXTD=
EXTT0=
EXTT1=
EXTT2=
EXTT3=
EXTT4=
EXTT5=
EXTT6=
EXTT7=
EXTT8=
EXTT9=
EXTT10=
EXTT11=
EXTT12=
EXTT13=
EXTT14=
EXTT15=
EXTT16=
EXTT17=
PLAYORDER=
